# xmcd CD database file
#
# Track frame offsets:
#	150
#	25675
#	45550
#	62640
#	83672
#	104132
#	127755
#	143662
#	168365
#	181657
#	199860
#	215257
#	229752
#	253270
#
# Disc length: 3937 seconds
#
# Revision: 2
# Processed by: cddbd v1.5.2PL0 Copyright (c) Steve Scherf et al.
# Submitted via: CDex 1.70beta2
#
DISCID=b70f5f0e
DTITLE=Rolf Wikström - Hjärtslag
DYEAR=1990
DGENRE=Blues
TTITLE0=Bluesman
TTITLE1=Vargen är död
TTITLE2=När jag ramla och slog mig
TTITLE3=Natten faller
TTITLE4=Jorden är ett dårhus
TTITLE5=Sluta upp med att ge mig skulden
TTITLE6=Bedragen och besviken
TTITLE7=Fallna änglar
TTITLE8=62-års Amazon
TTITLE9=Lathund
TTITLE10=Allihop
TTITLE11=Honungsbi
TTITLE12=Livet är ett gapskratt
TTITLE13=Som vatten flyter i floden
EXTD=YEAR: 1990
EXTT0=
EXTT1=
EXTT2=
EXTT3=
EXTT4=
EXTT5=
EXTT6=
EXTT7=
EXTT8=
EXTT9=
EXTT10=
EXTT11=
EXTT12=
EXTT13=
PLAYORDER=
